<svg width="985" height="419" viewBox="0 0 985 419" fill="none" xmlns="http://www.w3.org/2000/svg">
<g clip-path="url(#clip0_1757_2834)">
<rect width="985" height="418.234" rx="209.117" fill="#FDFDFD"/>
<rect x="-101.627" y="7.81745" width="617.579" height="410.417" fill="#7551B3"/>
<path d="M174.342 211.628C174.342 201.402 168.552 193.131 158.327 193.131H115.168V230.124H158.327C168.552 230.124 174.342 221.778 174.342 211.628ZM75.7696 161.101H165.695C193.44 160.725 214.041 184.034 213.816 211.628C214.041 239.072 193.44 262.53 165.695 262.155H75.7696V161.101ZM293.365 158.47C331.41 158.47 362.313 169.598 362.313 207.793V215.162C362.463 253.357 331.335 264.41 293.365 264.485C255.32 264.41 224.192 253.357 224.342 215.162V207.793C224.192 169.522 255.32 158.545 293.365 158.47ZM322.914 212.681V210.199C323.14 193.733 309.455 190.725 293.365 190.5C277.2 190.725 263.515 193.733 263.741 210.199V212.681C263.515 229.222 277.2 232.23 293.365 232.455C309.455 232.23 323.14 229.222 322.914 212.681ZM470.359 220.124H510.735C508.254 254.26 478.329 264.485 441.938 264.485C404.043 264.41 372.764 253.433 372.914 215.162V207.793C372.764 169.598 404.043 158.62 441.938 158.47C478.329 158.545 508.254 168.77 510.735 202.831H470.359C466.675 192.906 455.471 190.575 441.938 190.575C425.847 190.801 412.163 193.658 412.388 210.274V212.756C412.163 229.222 425.847 232.23 441.938 232.455C455.471 232.455 466.75 230.049 470.359 220.124Z" fill="white"/>
<path d="M611.515 262.155H572.116V193.131H525.274V161.101H658.357V193.131H611.515V262.155ZM709.861 190.35L695.951 220.199H723.696L709.861 190.35ZM632.192 262.155L686.403 161.101H733.245L787.456 262.155H743.095L735.125 244.861H684.523L676.553 262.155H632.192ZM790.539 161.026H887.908C908.735 160.8 926.404 178.319 926.103 199.222C926.103 206.816 924.073 213.733 920.013 219.899C916.028 225.989 910.69 230.651 904.073 233.733L926.103 262.079H884.148L865.126 237.418H829.937V262.079H790.539V161.026ZM877.983 190.575H829.937V207.793H877.983C880.389 207.793 882.419 206.966 884.073 205.312C885.802 203.583 886.629 201.553 886.629 199.222C886.629 194.41 882.795 190.575 877.983 190.575Z" fill="#7551B3"/>
</g>
<rect x="7.81746" y="7.81746" width="969.365" height="402.599" rx="201.3" stroke="white" stroke-width="15.6349"/>
<defs>
<clipPath id="clip0_1757_2834">
<rect width="985" height="418.234" rx="209.117" fill="white"/>
</clipPath>
</defs>
</svg>
