<svg width="162" height="36" viewBox="0 0 162 36" fill="none" xmlns="http://www.w3.org/2000/svg">
<path d="M51.584 26.168C50.352 26.168 49.248 25.968 48.272 25.568C47.296 25.168 46.512 24.576 45.92 23.792C45.344 23.008 45.04 22.064 45.008 20.96H49.376C49.44 21.584 49.656 22.064 50.024 22.4C50.392 22.72 50.872 22.88 51.464 22.88C52.072 22.88 52.552 22.744 52.904 22.472C53.256 22.184 53.432 21.792 53.432 21.296C53.432 20.88 53.288 20.536 53 20.264C52.728 19.992 52.384 19.768 51.968 19.592C51.568 19.416 50.992 19.216 50.24 18.992C49.152 18.656 48.264 18.32 47.576 17.984C46.888 17.648 46.296 17.152 45.8 16.496C45.304 15.84 45.056 14.984 45.056 13.928C45.056 12.36 45.624 11.136 46.76 10.256C47.896 9.36 49.376 8.912 51.2 8.912C53.056 8.912 54.552 9.36 55.688 10.256C56.824 11.136 57.432 12.368 57.512 13.952H53.072C53.04 13.408 52.84 12.984 52.472 12.68C52.104 12.36 51.632 12.2 51.056 12.2C50.56 12.2 50.16 12.336 49.856 12.608C49.552 12.864 49.4 13.24 49.4 13.736C49.4 14.28 49.656 14.704 50.168 15.008C50.68 15.312 51.48 15.64 52.568 15.992C53.656 16.36 54.536 16.712 55.208 17.048C55.896 17.384 56.488 17.872 56.984 18.512C57.48 19.152 57.728 19.976 57.728 20.984C57.728 21.944 57.48 22.816 56.984 23.6C56.504 24.384 55.8 25.008 54.872 25.472C53.944 25.936 52.848 26.168 51.584 26.168ZM62.3176 11.216C61.5976 11.216 61.0056 11.008 60.5416 10.592C60.0936 10.16 59.8696 9.632 59.8696 9.008C59.8696 8.368 60.0936 7.84 60.5416 7.424C61.0056 6.992 61.5976 6.776 62.3176 6.776C63.0216 6.776 63.5976 6.992 64.0456 7.424C64.5096 7.84 64.7416 8.368 64.7416 9.008C64.7416 9.632 64.5096 10.16 64.0456 10.592C63.5976 11.008 63.0216 11.216 62.3176 11.216ZM64.3576 12.608V26H60.2536V12.608H64.3576ZM75.2518 26L72.6838 22.28L70.5238 26H66.0838L70.4998 19.16L65.9638 12.608H70.5718L73.1398 16.304L75.2998 12.608H79.7398L75.2518 19.352L79.8598 26H75.2518Z" fill="black"/>
<path d="M96.0331 9.152V26H91.9291V19.064H85.5451V26H81.4411V9.152H85.5451V15.752H91.9291V9.152H96.0331ZM111.62 19.088C111.62 19.472 111.596 19.872 111.548 20.288H102.26C102.324 21.12 102.588 21.76 103.052 22.208C103.532 22.64 104.116 22.856 104.804 22.856C105.828 22.856 106.54 22.424 106.94 21.56H111.308C111.084 22.44 110.676 23.232 110.084 23.936C109.508 24.64 108.78 25.192 107.9 25.592C107.02 25.992 106.036 26.192 104.948 26.192C103.636 26.192 102.468 25.912 101.444 25.352C100.42 24.792 99.6198 23.992 99.0438 22.952C98.4678 21.912 98.1798 20.696 98.1798 19.304C98.1798 17.912 98.4598 16.696 99.0198 15.656C99.5958 14.616 100.396 13.816 101.42 13.256C102.444 12.696 103.62 12.416 104.948 12.416C106.244 12.416 107.396 12.688 108.404 13.232C109.412 13.776 110.196 14.552 110.756 15.56C111.332 16.568 111.62 17.744 111.62 19.088ZM107.42 18.008C107.42 17.304 107.18 16.744 106.7 16.328C106.22 15.912 105.62 15.704 104.9 15.704C104.212 15.704 103.628 15.904 103.148 16.304C102.684 16.704 102.396 17.272 102.284 18.008H107.42ZM112.969 19.28C112.969 17.904 113.225 16.696 113.737 15.656C114.265 14.616 114.977 13.816 115.873 13.256C116.769 12.696 117.769 12.416 118.873 12.416C119.817 12.416 120.641 12.608 121.345 12.992C122.065 13.376 122.617 13.88 123.001 14.504V12.608H127.105V26H123.001V24.104C122.601 24.728 122.041 25.232 121.321 25.616C120.617 26 119.793 26.192 118.849 26.192C117.761 26.192 116.769 25.912 115.873 25.352C114.977 24.776 114.265 23.968 113.737 22.928C113.225 21.872 112.969 20.656 112.969 19.28ZM123.001 19.304C123.001 18.28 122.713 17.472 122.137 16.88C121.577 16.288 120.889 15.992 120.073 15.992C119.257 15.992 118.561 16.288 117.985 16.88C117.425 17.456 117.145 18.256 117.145 19.28C117.145 20.304 117.425 21.12 117.985 21.728C118.561 22.32 119.257 22.616 120.073 22.616C120.889 22.616 121.577 22.32 122.137 21.728C122.713 21.136 123.001 20.328 123.001 19.304ZM134.178 8.24V26H130.074V8.24H134.178ZM144.616 22.52V26H142.528C141.04 26 139.88 25.64 139.048 24.92C138.216 24.184 137.8 22.992 137.8 21.344V16.016H136.168V12.608H137.8V9.344H141.904V12.608H144.592V16.016H141.904V21.392C141.904 21.792 142 22.08 142.192 22.256C142.384 22.432 142.704 22.52 143.152 22.52H144.616ZM155.134 12.464C156.67 12.464 157.902 12.976 158.83 14C159.758 15.008 160.222 16.4 160.222 18.176V26H156.142V18.728C156.142 17.832 155.91 17.136 155.446 16.64C154.982 16.144 154.358 15.896 153.574 15.896C152.79 15.896 152.166 16.144 151.702 16.64C151.238 17.136 151.006 17.832 151.006 18.728V26H146.902V8.24H151.006V14.408C151.422 13.816 151.99 13.344 152.71 12.992C153.43 12.64 154.238 12.464 155.134 12.464Z" fill="#7551B3"/>
<rect width="36" height="36" rx="7" fill="#7551B3"/>
<path d="M26.235 12.0338C25.7881 11.5866 25.2575 11.2319 24.6734 10.9899C24.0894 10.748 23.4634 10.6234 22.8313 10.6234C22.1991 10.6234 21.5731 10.748 20.9891 10.9899C20.405 11.2319 19.8744 11.5866 19.4275 12.0338L18.5 12.9613L17.5725 12.0338C16.6698 11.131 15.4454 10.6239 14.1688 10.6239C12.8921 10.6239 11.6677 11.131 10.765 12.0338C9.86227 12.9365 9.35512 14.1608 9.35512 15.4375C9.35512 16.7142 9.86227 17.9385 10.765 18.8413L18.5 26.5763L26.235 18.8413C26.6821 18.3943 27.0368 17.8637 27.2788 17.2797C27.5208 16.6957 27.6453 16.0697 27.6453 15.4375C27.6453 14.8053 27.5208 14.1793 27.2788 13.5953C27.0368 13.0113 26.6821 12.4807 26.235 12.0338Z" stroke="white" stroke-width="1.10526" stroke-linecap="round" stroke-linejoin="round"/>
</svg>
